<svg xmlns="http://www.w3.org/2000/svg" width="1100" height="620" viewBox="0 0 1100 620">
<rect width="100%" height="100%" fill="white"/>
<text x="550.0" y="34" text-anchor="middle" font-family="Arial, sans-serif" font-size="24" font-weight="bold" fill="#1f2937">Mean broadcast path length (BL)</text>
<text x="550.0" y="58" text-anchor="middle" font-family="Arial, sans-serif" font-size="13" fill="#6b7280">Mean ± 95% Student-t confidence interval</text>
<line x1="120" y1="500.0" x2="1065" y2="500.0" stroke="#d9dee7" stroke-dasharray="4 4"/>
<text x="108" y="505.0" text-anchor="end" font-family="Arial, sans-serif" font-size="14" fill="#374151">0</text>
<line x1="120" y1="397.0" x2="1065" y2="397.0" stroke="#d9dee7" stroke-dasharray="4 4"/>
<text x="108" y="402.0" text-anchor="end" font-family="Arial, sans-serif" font-size="14" fill="#374151">0.05</text>
<line x1="120" y1="294.0" x2="1065" y2="294.0" stroke="#d9dee7" stroke-dasharray="4 4"/>
<text x="108" y="299.0" text-anchor="end" font-family="Arial, sans-serif" font-size="14" fill="#374151">0.1</text>
<line x1="120" y1="191.0" x2="1065" y2="191.0" stroke="#d9dee7" stroke-dasharray="4 4"/>
<text x="108" y="196.0" text-anchor="end" font-family="Arial, sans-serif" font-size="14" fill="#374151">0.15</text>
<line x1="120" y1="88.0" x2="1065" y2="88.0" stroke="#d9dee7" stroke-dasharray="4 4"/>
<text x="108" y="93.0" text-anchor="end" font-family="Arial, sans-serif" font-size="14" fill="#374151">0.2</text>
<line x1="120" y1="88" x2="120" y2="500" stroke="#374151" stroke-width="1.5"/>
<line x1="120" y1="500" x2="1065" y2="500" stroke="#374151" stroke-width="1.5"/>
<text x="238.1" y="529" text-anchor="middle" font-family="Arial, sans-serif" font-size="15" fill="#374151">20 UAV / GM3D / f=0.1</text>
<rect x="153.1" y="186.5" width="51.0" height="313.5" fill="#0072B2"/>
<line x1="178.6" y1="235.7" x2="178.6" y2="137.3" stroke="#111827" stroke-width="1.8"/>
<line x1="174.6" y1="235.7" x2="182.6" y2="235.7" stroke="#111827" stroke-width="1.8"/>
<line x1="174.6" y1="137.3" x2="182.6" y2="137.3" stroke="#111827" stroke-width="1.8"/>
<rect x="209.8" y="241.6" width="51.0" height="258.4" fill="#009E73"/>
<line x1="235.3" y1="280.9" x2="235.3" y2="202.2" stroke="#111827" stroke-width="1.8"/>
<line x1="231.3" y1="280.9" x2="239.3" y2="280.9" stroke="#111827" stroke-width="1.8"/>
<line x1="231.3" y1="202.2" x2="239.3" y2="202.2" stroke="#111827" stroke-width="1.8"/>
<rect x="266.5" y="222.1" width="51.0" height="277.9" fill="#D55E00"/>
<line x1="292.0" y1="272.5" x2="292.0" y2="171.7" stroke="#111827" stroke-width="1.8"/>
<line x1="288.0" y1="272.5" x2="296.0" y2="272.5" stroke="#111827" stroke-width="1.8"/>
<line x1="288.0" y1="171.7" x2="296.0" y2="171.7" stroke="#111827" stroke-width="1.8"/>
<text x="474.4" y="529" text-anchor="middle" font-family="Arial, sans-serif" font-size="15" fill="#374151">20 UAV / GM3D / f=0.2</text>
<rect x="389.3" y="201.1" width="51.0" height="298.9" fill="#0072B2"/>
<line x1="414.8" y1="250.5" x2="414.8" y2="151.8" stroke="#111827" stroke-width="1.8"/>
<line x1="410.8" y1="250.5" x2="418.8" y2="250.5" stroke="#111827" stroke-width="1.8"/>
<line x1="410.8" y1="151.8" x2="418.8" y2="151.8" stroke="#111827" stroke-width="1.8"/>
<rect x="446.0" y="241.8" width="51.0" height="258.2" fill="#009E73"/>
<line x1="471.5" y1="280.1" x2="471.5" y2="203.5" stroke="#111827" stroke-width="1.8"/>
<line x1="467.5" y1="280.1" x2="475.5" y2="280.1" stroke="#111827" stroke-width="1.8"/>
<line x1="467.5" y1="203.5" x2="475.5" y2="203.5" stroke="#111827" stroke-width="1.8"/>
<rect x="502.7" y="230.5" width="51.0" height="269.5" fill="#D55E00"/>
<line x1="528.2" y1="283.2" x2="528.2" y2="177.7" stroke="#111827" stroke-width="1.8"/>
<line x1="524.2" y1="283.2" x2="532.2" y2="283.2" stroke="#111827" stroke-width="1.8"/>
<line x1="524.2" y1="177.7" x2="532.2" y2="177.7" stroke="#111827" stroke-width="1.8"/>
<text x="710.6" y="529" text-anchor="middle" font-family="Arial, sans-serif" font-size="15" fill="#374151">20 UAV / RPGM / f=0.1</text>
<rect x="625.6" y="234.6" width="51.0" height="265.4" fill="#0072B2"/>
<line x1="651.1" y1="288.8" x2="651.1" y2="180.5" stroke="#111827" stroke-width="1.8"/>
<line x1="647.1" y1="288.8" x2="655.1" y2="288.8" stroke="#111827" stroke-width="1.8"/>
<line x1="647.1" y1="180.5" x2="655.1" y2="180.5" stroke="#111827" stroke-width="1.8"/>
<rect x="682.3" y="264.9" width="51.0" height="235.1" fill="#009E73"/>
<line x1="707.8" y1="296.3" x2="707.8" y2="233.4" stroke="#111827" stroke-width="1.8"/>
<line x1="703.8" y1="296.3" x2="711.8" y2="296.3" stroke="#111827" stroke-width="1.8"/>
<line x1="703.8" y1="233.4" x2="711.8" y2="233.4" stroke="#111827" stroke-width="1.8"/>
<rect x="739.0" y="244.2" width="51.0" height="255.8" fill="#D55E00"/>
<line x1="764.5" y1="284.3" x2="764.5" y2="204.1" stroke="#111827" stroke-width="1.8"/>
<line x1="760.5" y1="284.3" x2="768.5" y2="284.3" stroke="#111827" stroke-width="1.8"/>
<line x1="760.5" y1="204.1" x2="768.5" y2="204.1" stroke="#111827" stroke-width="1.8"/>
<text x="946.9" y="529" text-anchor="middle" font-family="Arial, sans-serif" font-size="15" fill="#374151">20 UAV / RPGM / f=0.2</text>
<rect x="861.8" y="232.4" width="51.0" height="267.6" fill="#0072B2"/>
<line x1="887.3" y1="274.3" x2="887.3" y2="190.4" stroke="#111827" stroke-width="1.8"/>
<line x1="883.3" y1="274.3" x2="891.3" y2="274.3" stroke="#111827" stroke-width="1.8"/>
<line x1="883.3" y1="190.4" x2="891.3" y2="190.4" stroke="#111827" stroke-width="1.8"/>
<rect x="918.5" y="274.9" width="51.0" height="225.1" fill="#009E73"/>
<line x1="944.0" y1="320.5" x2="944.0" y2="229.2" stroke="#111827" stroke-width="1.8"/>
<line x1="940.0" y1="320.5" x2="948.0" y2="320.5" stroke="#111827" stroke-width="1.8"/>
<line x1="940.0" y1="229.2" x2="948.0" y2="229.2" stroke="#111827" stroke-width="1.8"/>
<rect x="975.2" y="226.3" width="51.0" height="273.7" fill="#D55E00"/>
<line x1="1000.7" y1="271.8" x2="1000.7" y2="180.8" stroke="#111827" stroke-width="1.8"/>
<line x1="996.7" y1="271.8" x2="1004.7" y2="271.8" stroke="#111827" stroke-width="1.8"/>
<line x1="996.7" y1="180.8" x2="1004.7" y2="180.8" stroke="#111827" stroke-width="1.8"/>
<rect x="120" y="574" width="18" height="14" rx="2" fill="#0072B2"/>
<text x="146" y="586" font-family="Arial, sans-serif" font-size="14" fill="#374151">A3D-BSM</text>
<rect x="296" y="574" width="18" height="14" rx="2" fill="#009E73"/>
<text x="322" y="586" font-family="Arial, sans-serif" font-size="14" fill="#374151">PR</text>
<rect x="472" y="574" width="18" height="14" rx="2" fill="#D55E00"/>
<text x="498" y="586" font-family="Arial, sans-serif" font-size="14" fill="#374151">CB</text>
<text transform="translate(22 310.0) rotate(-90)" text-anchor="middle" font-family="Arial, sans-serif" font-size="16" fill="#374151">BL (hops)</text>
</svg>