<svg xmlns="http://www.w3.org/2000/svg" width="1000" height="560" viewBox="0 0 1000 560">
<rect width="100%" height="100%" fill="white"/>
<text x="500.0" y="30" text-anchor="middle" font-family="Arial" font-size="20" font-weight="bold">Packet delivery ratio</text>
<line x1="95" y1="465.0" x2="970" y2="465.0" stroke="#dddddd"/>
<text x="85" y="470.0" text-anchor="end" font-family="Arial" font-size="12">0</text>
<line x1="95" y1="386.0" x2="970" y2="386.0" stroke="#dddddd"/>
<text x="85" y="391.0" text-anchor="end" font-family="Arial" font-size="12">20</text>
<line x1="95" y1="307.0" x2="970" y2="307.0" stroke="#dddddd"/>
<text x="85" y="312.0" text-anchor="end" font-family="Arial" font-size="12">40</text>
<line x1="95" y1="228.0" x2="970" y2="228.0" stroke="#dddddd"/>
<text x="85" y="233.0" text-anchor="end" font-family="Arial" font-size="12">60</text>
<line x1="95" y1="149.0" x2="970" y2="149.0" stroke="#dddddd"/>
<text x="85" y="154.0" text-anchor="end" font-family="Arial" font-size="12">80</text>
<line x1="95" y1="70.0" x2="970" y2="70.0" stroke="#dddddd"/>
<text x="85" y="75.0" text-anchor="end" font-family="Arial" font-size="12">100</text>
<line x1="95" y1="70" x2="95" y2="465" stroke="#222"/>
<line x1="95" y1="465" x2="970" y2="465" stroke="#222"/>
<text x="204.4" y="489" text-anchor="middle" font-family="Arial" font-size="13">10 GM3D</text>
<rect x="125.6" y="187.5" width="28.4" height="277.5" fill="#E45756"/>
<line x1="139.8" y1="298.9" x2="139.8" y2="76.1" stroke="#222" stroke-width="1.6"/>
<line x1="135.8" y1="298.9" x2="143.8" y2="298.9" stroke="#222" stroke-width="1.6"/>
<line x1="135.8" y1="76.1" x2="143.8" y2="76.1" stroke="#222" stroke-width="1.6"/>
<rect x="157.1" y="187.5" width="28.4" height="277.5" fill="#4C78A8"/>
<line x1="171.3" y1="298.9" x2="171.3" y2="76.1" stroke="#222" stroke-width="1.6"/>
<line x1="167.3" y1="298.9" x2="175.3" y2="298.9" stroke="#222" stroke-width="1.6"/>
<line x1="167.3" y1="76.1" x2="175.3" y2="76.1" stroke="#222" stroke-width="1.6"/>
<rect x="188.6" y="185.5" width="28.4" height="279.5" fill="#72B7B2"/>
<line x1="202.8" y1="298.9" x2="202.8" y2="72.1" stroke="#222" stroke-width="1.6"/>
<line x1="198.8" y1="298.9" x2="206.8" y2="298.9" stroke="#222" stroke-width="1.6"/>
<line x1="198.8" y1="72.1" x2="206.8" y2="72.1" stroke="#222" stroke-width="1.6"/>
<rect x="220.1" y="173.9" width="28.4" height="291.1" fill="#F58518"/>
<line x1="234.3" y1="287.6" x2="234.3" y2="60.2" stroke="#222" stroke-width="1.6"/>
<line x1="230.3" y1="287.6" x2="238.3" y2="287.6" stroke="#222" stroke-width="1.6"/>
<line x1="230.3" y1="60.2" x2="238.3" y2="60.2" stroke="#222" stroke-width="1.6"/>
<rect x="251.6" y="193.2" width="28.4" height="271.8" fill="#54A24B"/>
<line x1="265.8" y1="307.1" x2="265.8" y2="79.4" stroke="#222" stroke-width="1.6"/>
<line x1="261.8" y1="307.1" x2="269.8" y2="307.1" stroke="#222" stroke-width="1.6"/>
<line x1="261.8" y1="79.4" x2="269.8" y2="79.4" stroke="#222" stroke-width="1.6"/>
<text x="423.1" y="489" text-anchor="middle" font-family="Arial" font-size="13">20 GM3D</text>
<rect x="344.4" y="305.1" width="28.4" height="159.9" fill="#E45756"/>
<line x1="358.6" y1="329.0" x2="358.6" y2="281.2" stroke="#222" stroke-width="1.6"/>
<line x1="354.6" y1="329.0" x2="362.6" y2="329.0" stroke="#222" stroke-width="1.6"/>
<line x1="354.6" y1="281.2" x2="362.6" y2="281.2" stroke="#222" stroke-width="1.6"/>
<rect x="375.9" y="305.1" width="28.4" height="159.9" fill="#4C78A8"/>
<line x1="390.1" y1="329.0" x2="390.1" y2="281.2" stroke="#222" stroke-width="1.6"/>
<line x1="386.1" y1="329.0" x2="394.1" y2="329.0" stroke="#222" stroke-width="1.6"/>
<line x1="386.1" y1="281.2" x2="394.1" y2="281.2" stroke="#222" stroke-width="1.6"/>
<rect x="407.4" y="192.1" width="28.4" height="272.9" fill="#72B7B2"/>
<line x1="421.6" y1="262.7" x2="421.6" y2="121.6" stroke="#222" stroke-width="1.6"/>
<line x1="417.6" y1="262.7" x2="425.6" y2="262.7" stroke="#222" stroke-width="1.6"/>
<line x1="417.6" y1="121.6" x2="425.6" y2="121.6" stroke="#222" stroke-width="1.6"/>
<rect x="438.9" y="256.0" width="28.4" height="209.0" fill="#F58518"/>
<line x1="453.1" y1="323.5" x2="453.1" y2="188.4" stroke="#222" stroke-width="1.6"/>
<line x1="449.1" y1="323.5" x2="457.1" y2="323.5" stroke="#222" stroke-width="1.6"/>
<line x1="449.1" y1="188.4" x2="457.1" y2="188.4" stroke="#222" stroke-width="1.6"/>
<rect x="470.4" y="287.9" width="28.4" height="177.1" fill="#54A24B"/>
<line x1="484.6" y1="314.0" x2="484.6" y2="261.8" stroke="#222" stroke-width="1.6"/>
<line x1="480.6" y1="314.0" x2="488.6" y2="314.0" stroke="#222" stroke-width="1.6"/>
<line x1="480.6" y1="261.8" x2="488.6" y2="261.8" stroke="#222" stroke-width="1.6"/>
<text x="641.9" y="489" text-anchor="middle" font-family="Arial" font-size="13">10 RPGM</text>
<rect x="563.1" y="243.6" width="28.4" height="221.4" fill="#E45756"/>
<line x1="577.3" y1="364.1" x2="577.3" y2="123.1" stroke="#222" stroke-width="1.6"/>
<line x1="573.3" y1="364.1" x2="581.3" y2="364.1" stroke="#222" stroke-width="1.6"/>
<line x1="573.3" y1="123.1" x2="581.3" y2="123.1" stroke="#222" stroke-width="1.6"/>
<rect x="594.6" y="243.6" width="28.4" height="221.4" fill="#4C78A8"/>
<line x1="608.8" y1="364.1" x2="608.8" y2="123.1" stroke="#222" stroke-width="1.6"/>
<line x1="604.8" y1="364.1" x2="612.8" y2="364.1" stroke="#222" stroke-width="1.6"/>
<line x1="604.8" y1="123.1" x2="612.8" y2="123.1" stroke="#222" stroke-width="1.6"/>
<rect x="626.1" y="206.0" width="28.4" height="259.0" fill="#72B7B2"/>
<line x1="640.3" y1="350.7" x2="640.3" y2="61.3" stroke="#222" stroke-width="1.6"/>
<line x1="636.3" y1="350.7" x2="644.3" y2="350.7" stroke="#222" stroke-width="1.6"/>
<line x1="636.3" y1="61.3" x2="644.3" y2="61.3" stroke="#222" stroke-width="1.6"/>
<rect x="657.6" y="198.5" width="28.4" height="266.5" fill="#F58518"/>
<line x1="671.8" y1="341.7" x2="671.8" y2="55.3" stroke="#222" stroke-width="1.6"/>
<line x1="667.8" y1="341.7" x2="675.8" y2="341.7" stroke="#222" stroke-width="1.6"/>
<line x1="667.8" y1="55.3" x2="675.8" y2="55.3" stroke="#222" stroke-width="1.6"/>
<rect x="689.1" y="217.5" width="28.4" height="247.5" fill="#54A24B"/>
<line x1="703.3" y1="357.4" x2="703.3" y2="77.5" stroke="#222" stroke-width="1.6"/>
<line x1="699.3" y1="357.4" x2="707.3" y2="357.4" stroke="#222" stroke-width="1.6"/>
<line x1="699.3" y1="77.5" x2="707.3" y2="77.5" stroke="#222" stroke-width="1.6"/>
<text x="860.6" y="489" text-anchor="middle" font-family="Arial" font-size="13">20 RPGM</text>
<rect x="781.9" y="179.5" width="28.4" height="285.5" fill="#E45756"/>
<line x1="796.0" y1="291.8" x2="796.0" y2="67.3" stroke="#222" stroke-width="1.6"/>
<line x1="792.0" y1="291.8" x2="800.0" y2="291.8" stroke="#222" stroke-width="1.6"/>
<line x1="792.0" y1="67.3" x2="800.0" y2="67.3" stroke="#222" stroke-width="1.6"/>
<rect x="813.4" y="179.5" width="28.4" height="285.5" fill="#4C78A8"/>
<line x1="827.5" y1="291.8" x2="827.5" y2="67.3" stroke="#222" stroke-width="1.6"/>
<line x1="823.5" y1="291.8" x2="831.5" y2="291.8" stroke="#222" stroke-width="1.6"/>
<line x1="823.5" y1="67.3" x2="831.5" y2="67.3" stroke="#222" stroke-width="1.6"/>
<rect x="844.9" y="182.6" width="28.4" height="282.4" fill="#72B7B2"/>
<line x1="859.0" y1="272.5" x2="859.0" y2="92.8" stroke="#222" stroke-width="1.6"/>
<line x1="855.0" y1="272.5" x2="863.0" y2="272.5" stroke="#222" stroke-width="1.6"/>
<line x1="855.0" y1="92.8" x2="863.0" y2="92.8" stroke="#222" stroke-width="1.6"/>
<rect x="876.4" y="161.9" width="28.4" height="303.1" fill="#F58518"/>
<line x1="890.5" y1="256.9" x2="890.5" y2="67.0" stroke="#222" stroke-width="1.6"/>
<line x1="886.5" y1="256.9" x2="894.5" y2="256.9" stroke="#222" stroke-width="1.6"/>
<line x1="886.5" y1="67.0" x2="894.5" y2="67.0" stroke="#222" stroke-width="1.6"/>
<rect x="907.9" y="174.2" width="28.4" height="290.8" fill="#54A24B"/>
<line x1="922.0" y1="263.4" x2="922.0" y2="85.1" stroke="#222" stroke-width="1.6"/>
<line x1="918.0" y1="263.4" x2="926.0" y2="263.4" stroke="#222" stroke-width="1.6"/>
<line x1="918.0" y1="85.1" x2="926.0" y2="85.1" stroke="#222" stroke-width="1.6"/>
<rect x="100" y="520" width="16" height="12" fill="#E45756"/>
<text x="122" y="530" font-family="Arial" font-size="13">A3D-BSM</text>
<rect x="250" y="520" width="16" height="12" fill="#4C78A8"/>
<text x="272" y="530" font-family="Arial" font-size="13">SF</text>
<rect x="400" y="520" width="16" height="12" fill="#72B7B2"/>
<text x="422" y="530" font-family="Arial" font-size="13">PR</text>
<rect x="550" y="520" width="16" height="12" fill="#F58518"/>
<text x="572" y="530" font-family="Arial" font-size="13">CB</text>
<rect x="700" y="520" width="16" height="12" fill="#54A24B"/>
<text x="722" y="530" font-family="Arial" font-size="13">SBA</text>
<text transform="translate(22 280.0) rotate(-90)" text-anchor="middle" font-family="Arial" font-size="14">PDR (%)</text>
</svg>